<svg xmlns="http://www.w3.org/2000/svg" viewBox="0 0 512 512" width="512" height="512">
  <rect width="512" height="512" rx="15%" fill="#121212"/>
  <g fill="#FF9A76">
    <path d="M256 124c-7.3 0-14.3 1.5-20.7 4.1v-24.5c6.8-1.9 13.9-2.9 20.7-2.9s13.9 1 20.7 2.9v24.5c-6.4-2.6-13.4-4.1-20.7-4.1z"/>
    <path d="M256 388c7.3 0 14.3-1.5 20.7-4.1v24.5c-6.8 1.9-13.9 2.9-20.7 2.9s-13.9-1-20.7-2.9v-24.5c6.4 2.6 13.4 4.1 20.7 4.1z"/>
    <circle cx="256" cy="256" r="110" fill="none" stroke="#FF9A76" stroke-width="32"/>
    <text x="256" y="284" font-family="Arial, sans-serif" font-size="110" font-weight="bold" text-anchor="middle" fill="#FF9A76">$</text>
  </g>
</svg> 